<svg width="203" height="296" fill="none" xmlns="http://www.w3.org/2000/svg"><path fill-rule="evenodd" clip-rule="evenodd" d="M99 172.9c.3 2.7-.2 5.4-1.5 7.6l-.5.8.8.3c1.5.5 3.2.7 5 .7 2 0 4-.3 5.7-.5l1-.1-.5-1c-.4-.6-.5-1.5-.6-2.4v-.8c-1.6-13.7-3.5-27.6-5.4-41l-1.5-10.9-1.5.1a7623.3 7623.3 0 00-1.6 28.6c-.5 7.3-.3 13.2.6 18.6zm.6 82.2c-2 0-4.2-.2-6.2-.6a59.7 59.7 0 01-17.2-7.4 157.4 157.4 0 00-.8-.4 22 22 0 01-5.9-4c-1.6-1.8-2-3.6-.9-5.7l.2-.3-.2-.3c-1-2-1-4.5.2-6l1-1.4-1.6.2-5 .7-5.5.7H57v.5c-.1.3-.2.4-.8.4l-1.8-.3c-1-.1-1.9-.4-2.9-.4-.4 0-.7 0-1.1.2h-.2l-.2.2-.4.1h-.3l-.2-.3h-.3c-5.2.6-9.6 1.6-13.6 3v.1c-1.5.6-3 1.3-4.3 1.3-1 0-1.8-.4-2.6-1l-.2-.3H28c-3 0-4.3-3.5-4.5-5.8v-.3l-.2-.1a27.4 27.4 0 01-9.4-18.2c-1-7.2-.2-14.7.7-21.2 2-16.7 4.2-31.8 9.7-46l.2-.7-.6-.2c-2.4-.9-4.2-1.9-5.6-3v-.2H18c-2-.8-2.9-3.7-3.1-4.6v-.2c-.5-.7-.6-1.8-.3-2.8v-.2c-.2-1 .3-2.2.7-3.3l.6-1.6 1.6-4.5c1.1-3.4 2.3-6.9 3.6-10.2l.2-.5-.4-.3c-.7-.6-.4-1.2.5-2.7l.6-1c1.2-2.2 2.5-4.2 3.9-6 7-13 19.2-20 34.6-20h.3l.2-.1c2.9-1.7 5-4.7 6.3-9v-1.9a4 4 0 011.3-3.1c1.6-1.4 4-1.5 6.4-1.5h.4c3 0 5.1.5 6.7 1.6 1.8 1.3 2.8 3.4 3 6.4v3l.1.1.8 2 .3.7.6-.3c.5-.2 1-.3 1.7-.3h.6l5 .3 3.8.3h.2c3 0 5.3.4 7 1.5 1.8 1 3.1 2.8 4 5.5a231 231 0 019.5 46.6c1.1 7.7 1.4 15.5 1.8 23.1.3 8 .7 16.3 1.9 24.4v.6h.8c2.9-.2 6-.6 9.3-1 5-.7 10.3-1.3 15.3-1.3 7 0 12.4 1.3 16.4 4.2a13 13 0 014.1 10c0 5.8-3.1 12-7.7 16-5.8 5.6-16.5 10.3-31.6 14.2a279 279 0 01-35.6 6.3l-1.9.2 1.5 1 1.7 1.2.3.3.4-.2c1-.5 1.7-.6 2-.6.4 0 .8 0 .9.4 0 .2-.2.6-.5.6l-1.8.2 1.4 1c1 .8 2.5 1.6 4.2 2.6 5.6 3.2 14 8 12.5 12.2v.6c.4.7.5 1.4.2 2.1-.7 1.5-2.9 2.6-4.7 3a30.2 30.2 0 01-10 1.7z" fill="#fff"/><path fill-rule="evenodd" clip-rule="evenodd" d="M93.5 228c.2-.2.3-.5.1-.9-.8-1-2.4-.3-3.4 0l-1.2-1c.2-.8-.8-1.3-1.2-2-.4-.4-.7-1-1.2-1.3-1.1-.9-2.7-.3-4-.3l-3-3.8c1.1-1.9 1.2-4 .8-6.1 17-6.4 31.6-18.5 50-21.3.6 0 1-.8.8-1.4-1.3-3-19.7 4.8-22.4 6.2-8.1 3.9-15.7 8.7-23.6 12.9-1.6.9-3.4 1.3-5.2 1.8-2.8-9-7.4-17.3-11-26l.6-1.2c-.1 4.8 4.5 4.7 5.2.2-.3 2.4 1.5 7.4 4 4a6 6 0 001-2.9l.5 2.2c.6 1.5 2.5-.3 2.9-1l.6-.3c4.6.6 10 .6 13.4-3 5.7 2.2 12 .2 17.7-.7 11.8-1.3 23.6-3.3 35.4-3.2 5.3.3 11.5 1.2 14.9 5.6 4.3 6.5 1.8 15.2-2.9 20.8-11.4 14.3-50.5 20.6-68.8 22.7zm.3 5.1l.7-.1c3.3 2.7 19 9.9 17.7 14.1-.4.6-1.4.7-2 .8a29.3 29.3 0 01-14.4.8c-1.4-.2-2.6-.7-3.8-1.3l-12.3-5.3c-5-2-13.7-5.9-10.1-12.4 3.4 3.8 7.7 3.5 10-1.3.7-1.4 1.3-3.4 3-4 1-.6 2.2-.7 3 0l.1-.3c.9 1.2 1.7 2.5 2.7 3.7-.4 0-4 2.7-3 2.7 1.3-.7 2.6-1.2 4-1.6 1 1 2.2 2 3.4 2.9-1.2.7-2.2 1.6-3 2.6l.1.2c1.3-.6 2.6-1.1 4-1.5zm16.9 18.5c-12.7 5.6-26.2-.7-37-7.4-2.5-1.4-5.8-3.4-5.3-6.6a18 18 0 007.8 5.5l14.7 6.5c.5 1.5 2.7 1.6 4 2 6 1 12.4.5 18-1.8-.3 1-1.3 1.4-2.2 1.8zM60 229.5l-1 .1a1 1 0 00-.6-1c.2-.8.3-1.7.2-2.6.5 1.3 2.2 1 3.3.5l4.6-1.3c.6 1.1 1.2 2.2 2 3.2-2.9.2-5.7.7-8.5 1zm-1.3-4.2l-.2.5c0-.7-.2-1.3-.4-2l.6 1.5zm-1.8-3.6c-1.4-1.8-4-3.3-6.3-2.7-.2 0-.2.2 0 .3 3.2.4 6 3 6.1 6.2.3 1.5-.8 3-.4 4.3H56l-.1.3c.3 0 .4.6 0 .7a4 4 0 01-.7.1c-1.3-.3-2.7-.4-4-1-1.2-.5-.9-2-1.3-3-.3-1.3-.7-2.5-1.2-3.7h-.1a41 41 0 00-.3 7.1l-1.3.2c0-.7-2-8.7-3-6.6.6 2.2.6 4.6.7 6.9a59 59 0 00-9.2 2.3c-2 .6-4.6 2.5-6.6.8-1.6-1.3-2-3.6-2-5.5 2.1-11.3 18.3-12.7 27.8-11.8l2.8 6.2a7.6 7.6 0 00-.7-1zm-32.6 6.5c-.1-2.6.3-5.8 2.2-7.7 4.4-3.7 10.6-4.9 16.1-6.2a52 52 0 017.8-1c1-.1 2.1.1 2.8-.6l1 2.3c-11-1.4-33.9 3.6-27.5 18.5a8.6 8.6 0 01-2.4-5.3zm54.5-8.5c.5 1.2 1.2 2.4 2 3.5-1 .6-1.7 1.5-2.2 2.4-3.4 8.8-7 4.1-11.5-.6 3.8-1.4 8.8-2.5 11.7-5.3zm-56.2 6.7c-8.8-8.6-10.5-23-7.3-34.3.3-4.2 1.8-8.1 3.1-12.1a183 183 0 0116.4-34.5l24.7 6.7c1.1.2 2.3.7 3.4.8l1.3.8c-.6 3 0 6.2 0 9.3a29 29 0 01-.4 7.2c-.3 3.5-1.8 15 1.2 17 1 .5 1.9-1 2.3-.5l1-1c1.2 3.7 3.1 7.1 4.3 10.8 1.6 5.5 6.7 14.3 5.5 19.5-.9 3.3-4.7 4-7.5 5-3.1 1.1-6.4 2.1-9.7 3l-4.6-10.3a562 562 0 01-18.4-48.2c-.1-.4-1.4-4.3-1.6-3.2a505 505 0 002.7 11.3c-2.5-.3-5.2-.5-7.5.7 0 .1 0 .3.1.2 2.7-.4 5.3.4 7.9 1a351 351 0 0013.3 36.2c-1.5-.5-3.3 0-5 0-5 .6-10 1.7-14.7 3.4-6 2-10.3 4.5-10.5 11.2zm-4.9-89.7c-1.4-1.6-2.6-3.6-2.4-5.8 1-1.1 1.2-2.7 1.7-4l6.1-17a80.6 80.6 0 0116 6.6c.8.5 1.7 1.2 2.7 1-1 1.5-3.3 3-3.7 4.8 0 .6.3 1 1 1 9.4 6.6 19.2 13.2 28.1 20.6 6.7 5.3 11.8 9.5 14.1 18a54.7 54.7 0 011.4 17c0 1.2 0 2.3-.2 3.4.2.9-.1 2.5-1 2.6 0 .2 0 .4.2.5l-.1.1a45.5 45.5 0 01-.2-.6 42 42 0 01-.7-10.4c0-1-1.5-1-1.5 0l-.7 7.7c-.3 1.7.1 4-1.2 5.2-1.4-1.3-1-3.7-.9-5.4l.3-8c0-.8-1.3-1-1.5-.2a244 244 0 01-1.5 7.3c-.3 1-.5 5.2-2 4.5-1-.7-.3-4.4-.5-5.7l.3-7.4c0-1-1.5-1.2-1.8-.2l-1 4.7c-.7 2.7-.4 6.3-3 8-.9-6.9.5-13.7.7-20.6-.1-2.2-.5-4.4-.8-6.7a15 15 0 01.3-7.4c-.3-1-1.2 1.8-1.3 2-.7-1.4-2.5-1.5-3.8-1.9-3.1-1-6.2-1.7-9.3-2.6a5195 5195 0 00-24.6-6.7c-3.3-.9-6.7-2-9.2-4.4zm82 36.7c-1-6-1-12.2-.6-18.4l1.6-28.6c2.4 17.3 5 34.5 7 51.8 0 1.2 0 2.5.7 3.6-3.4.4-7 .9-10.3-.2 1.4-2.5 2-5.3 1.7-8.2zm17.2-42.8c2.5 16.3 1 33 3.5 49.3-3.4.4-6.8 1-10.2 1.6.3-2-.4-4-.5-6.1a740.8 740.8 0 00-8.7-53.7l.3-6.2c3.8-2.3 8-3.9 12.4-4.6 1.2 6.5 2.3 13 3.2 19.7zM87.2 79.2a16.5 16.5 0 01-.4-.8h1.4v2.3c-.2-.5-.7-1-1-1.5zm77.3 102.5c-11-7.9-28.9-2.9-41.5-2-2.4-15.8-1.4-31.7-3.7-47.5-2-15.7-4.3-31.7-9.5-46.7-2.1-5.9-5.8-7.6-12-7.6-3 0-6.3-.6-9.3-.5a5 5 0 00-2 .4 20 20 0 01-1.5-6c0-.1-.2-.1-.2 0a9.6 9.6 0 00-.4 5.6c.2 1.3 1.9 6.5 3.8 4.5.2 4.3-.8 9.4-5 11.6-7.4 3.2-17.6.3-21.9-6.5-.8-1.4-1.5-2.8-2.4-4.1 6.4-1.8 10-9.4 8.4-15.2-.9 4.5-2.6 9.5-6.8 12-15.4 0-28.1 7-35.4 20.4-1.4 1.9-2.7 4-3.9 6-.6 1.3-2.5 3.3-.9 4.6l-5.2 14.8c-.5 1.6-1.6 3.4-1.4 5a5 5 0 00.4 3.4c.5 1.9 1.6 4.3 3.5 5.1a17 17 0 005.8 3.2 193.8 193.8 0 00-9.8 46.2c-1.8 13.6-2.8 30.1 9 40 .2 2.8 1.9 6.3 5.2 6.4 2.3 2.2 5.1 1 7.7-.1 4.3-1.6 8.8-2.5 13.3-3 .5.4 1.3.3 1.7-.1 2.8-.6 6.6 2 7.1-.4 3.5-.3 7-1 10.5-1.3-1.5 1.9-1.4 4.7-.2 6.8-2.9 5.5 3.7 8.7 7.8 11a60.1 60.1 0 0017.4 7.4c5.5 1.2 11.3.8 16.6-1 2.7-.7 6.6-3 5-6.2 2-6.1-12.6-12.5-17-15.5 1.8-.2 1.9-3.9-2.7-1.8l-1.7-1.1c18.6-2.2 54.2-8 67.6-20.6 7.4-6.5 11.7-19.7 3.6-27.2z" fill="#2B283A"/><path fill-rule="evenodd" clip-rule="evenodd" d="M91 31.6c-8.6-4.4-21.5-4-27.6 4.4-1 1.6-2 3.3-2.5 5.1-.6 2.3-1.6 5.7-1.9 9-.1 1.8.5 3.7.4 5.3-.2 1.3-1.5 1-1.5 2.2.2 2.4.2 5.9 1.5 7.8 1.1 1.6 3.3 1.5 4.6 3.1 1.2 1.5 2.2 3 3.7 4.3C71 78.6 80 80 86.1 79.4c14.5-2.3 14.3-23.9 14.1-35.2 0-5.9-4.2-10.2-9.2-12.6z" fill="#fff"/><path fill-rule="evenodd" clip-rule="evenodd" d="M103.3 44.9l.4.3a8.7 8.7 0 01-1.2 13.6 4.2 4.2 0 01.6 4.4 7.1 7.1 0 01-2.4 3c-.6.2-1.2.3-1.7.1a17 17 0 01-4 10.1 14 14 0 01-13.5 4.2 13.6 13.6 0 01-2.3-.6c-.8-.4-1.7-.7-2.3-1.4a1 1 0 011-1.5c.5 0 1 .3 1.4.5l1 .4a12.2 12.2 0 007.4.2c2.7-.8 5.1-2.4 6.7-4.6a17 17 0 002.8-8.6c.3-2.7.3-5.3.2-7.9v-9.8l.1-3.8-.2-.1-1.3-1.2a13.7 13.7 0 00-3.6-2.8A23.7 23.7 0 0081 36.7a35 35 0 00-6.4.8l-6.5 1.7c-1.2-.8-2.5-1.4-3.8-2a157.8 157.8 0 01-.6-.2c0 .4-.3.8-.6 1.2l-.3.5a26.1 26.1 0 00-2.4 6.8l-.7 4.7v.5l-.3 2v1.7l.1 1c1.5-.4 3.1 0 3.8 1.5 0 .1 0 .2-.2.1-1.3-1-3.6-.4-4.3 1-.3.7-.4 1.6-.2 2.3.1.6.4 1 .6 1.6.2.2.4.5.5.9a5.8 5.8 0 01.4 1.5c0 .3 0 .6.2.8.2.2.6.3.9.4h.2c.4 0 .8.2 1.2.4 1 .6 1.8 1.6 2.5 2.6l1 1.4a20.1 20.1 0 002.1 2.1l.6.5c.6.4 1.3.9 1.4 1.7 0 .3-.3.6-.6.7-.7.2-1.2-.2-1.7-.6l-.2-.1a20.3 20.3 0 01-1.5-1.3c-.9-1-1.8-2-2.5-3l-.5-.6a4 4 0 00-1.3-1.6 3 3 0 00-1.3-.5c-.5-.1-1-.3-1.4-.6-.7-.6-.8-1.3-.9-2l-.1-1-.6-1.3-.6-1.5c-.4-2 .2-4.2 2-5.1a3.4 3.4 0 01.4-.2.6.6 0 01-.1 0 2 2 0 01-.4-1l-.4-2.4v-.3c-.3-1.8-.2-3.7.1-5.6a27.6 27.6 0 011.4-5c-.3-.2-.4-.4-.5-.6-.2-.5 0-1 0-1.5v-.3l.2-.5c-.1-5.7 4.7-10.4 9.4-13a30 30 0 0117.6-3.5c3 .3 6 1 8.7 2.6 2.4 1.4 4.3 3.4 5.6 5.8a17.3 17.3 0 011.6 11.6v.3c-.2.5-.3 1.2-.2 1.7.2.5.6.8 1 1.2zM60 59.5a3.9 3.9 0 013.8 2.3c.2.6-.8 1-1.1.4l-.2-.3c-.2-.4-.4-.9-.8-1.3-.5-.4-1.1-.8-1.8-1v-.1z" fill="#2B283A"/><path fill-rule="evenodd" clip-rule="evenodd" d="M80 64.3c2-.2 4 .4 6 .7a27.9 27.9 0 003.7.3c0-.2.1-.3.3-.4.5-.2.9-.3 1.4-.3l1.4.1c.8.2 1.6.5 2.2 1.1 1.4 1.4 1.2 3.6.1 5.1-2.2 3.1-6.3 3.3-9.8 3.2H85c-3.2 0-7.8.5-9.3-3.1a5 5 0 01.2-4.2c.8-1.5 2.5-2.3 4.1-2.5zm10 5.2l-4.5.1a57.7 57.7 0 00.3 2v.5a.4.4 0 01.3.2c1.1 0 2.4 0 3.5-.2l.2-.3.1-1.4v-1zm-5.6.1h-3.7l.3 1.7c.1.5-.4.9-.8.9h.1c1.4.2 2.8.1 4.2.1v-1.2a50.8 50.8 0 01-.1-1.5zm-7.2 0l.2.7a3.4 3.4 0 002.6 1.8c-.2 0-.3-.2-.4-.4l-.1-2-2.3-.2zm16.8-.3h-1.7l-1.5.1v1l.1 1.4c1-.3 2-.9 2.6-1.8a3.4 3.4 0 00.5-.7zM79.8 66c-1 .2-1.8.7-2.3 1.5-.2.5-.4 1-.3 1.6l2.3-.1v-.8c0-.7 0-1.5.3-2.2zm4.7 0H84l-3.4-.2a6.4 6.4 0 00-.4.1l.2 2.2.1.8h.2l3.6-.1a41.3 41.3 0 010-.7V66.2zm5.5 0a22.5 22.5 0 01-4.8.1v.8l.2 1.4v.4a826.4 826.4 0 004.4-.2h.2l.1-.8.1-1.6a.8.8 0 01-.2-.1zm.5.2l.2 2.3h1l.4-.1c.7 0 1.5-.2 2 0 .1-.6 0-1.2-.5-1.5-1-.7-2-.5-3-.7zm-3.3-6.8c1.5-.8 5-1.7 5.3 1 .1 1-.8 2-1.8 2.5-1 .4-2.7.9-3.6 0-.7-.7.3-2 1.1-1.4.5.3 1.4 0 2 0 .5-.2 1.2-.7 1-1.4-.2-.6-1-.7-1.6-.7l-2.3.2c-.1 0-.2-.2 0-.2zm6-4.1c2-.1 3.2 2 2.7 3.7 0 .3-.4.6-.7.6H95c-.3-.1-.6-.5-.6-.8 0-.9 0-1.8-1-2-.8-.2-1.3.6-1.3 1.3l-.3.2c-.6-.4-.7-1.1-.4-1.7a2 2 0 011.8-1.3zm-14.5.4c1.4-.5 3 .3 3.7 1.5.2.1.4.3.4.6 0 .4-.1.6-.4 1-.4.4-1.3.2-1.5-.4-.2-.8-1-1.3-1.8-1-1 .3-.9 1.2-1.5 1.8h-.3c-.6-.3-.5-1.3-.3-1.8a3 3 0 011.7-1.7zm-2-4.3c1.2-1.1 4.2-2.3 5-.1.2.4-.1 1-.6 1-.7.2-1.3-.1-2 0a3 3 0 00-1.6.5c-1.3 1-1.5 2.6-2.4 3.8H75c-.2-1.8.5-3.9 1.8-5.2zm15.1-1.1c.8-.3 1.6-.3 2.4 0a4.7 4.7 0 012.7 2.1l.3.8c.6.3.9 1.1.3 1.7-.4.3-.8.5-1.2.3-.9-.2-1-.9-1.3-1.6a3 3 0 00-1-1.3c-1-.7-2.6-1-3.8-.6 0 0-.1 0 0-.1l.6-.8 1-.5z" fill="#2B283A"/></svg>