<svg height="511pt" viewBox="-63 1 511 511.9995" width="511pt" xmlns="http://www.w3.org/2000/svg"><path d="m154.875 373.894531h77.226562v130.722657h-77.226562zm0 0" fill="#b8786c"/><path d="m154.875 458.6875c11.171875 7.730469 24.617188 12.136719 38.613281 12.136719 13.996094 0 27.4375-4.402344 38.609375-12.136719h.003906v-84.792969h-77.226562zm0 0" fill="#914b3b"/><path d="m107.753906 284.074219-55.214844 36.589843-41.128906 79.613282c-10.394531 20.121094 3.40625 44.683594 26.039063 45.507812.527343.019532 1.054687.027344 1.585937.027344 17.003906 0 31.691406-9.90625 38.613282-24.257812v-.003907c6.917968 14.355469 21.609374 24.261719 38.613281 24.261719 17 0 31.691406-9.90625 38.609375-24.257812v-.003907c6.921875 14.355469 21.609375 24.261719 38.613281 24.261719s31.695313-9.90625 38.613281-24.261719v.003907c6.921875 14.351562 21.609375 24.257812 38.613282 24.257812 17.003906 0 31.695312-9.90625 38.613281-24.261719v.003907c6.921875 14.351562 21.609375 24.257812 38.613281 24.257812.53125 0 1.058594-.007812 1.585938-.027344 22.632812-.824218 36.429687-25.386718 26.035156-45.507812l-41.125-79.613282-55.214844-36.589843zm0 0" fill="#35a155"/><path d="m335.546875 288.234375-45.269531-78.050781-96.285156-59.269532-97.289063 59.269532-45.269531 78.050781c-11.386719 19.628906 1.953125 44.769531 24.632812 45.59375.523438.019531 1.054688.03125 1.585938.03125 17.003906 0 31.691406-9.90625 38.613281-24.265625v.003906c6.917969 14.355469 21.609375 24.261719 38.609375 24.261719 17.003906 0 31.695312-9.90625 38.613281-24.265625 6.921875 14.359375 21.609375 24.265625 38.613281 24.265625 17.003907 0 31.691407-9.90625 38.613282-24.261719v-.003906c6.917968 14.359375 21.609375 24.265625 38.613281 24.265625.53125 0 1.0625-.011719 1.585937-.03125 22.675782-.824219 36.015626-25.964844 24.632813-45.59375zm0 0" fill="#79c08c"/><path d="m296.765625 177.285156-57.808594-98.367187h-90.941406l-57.808594 98.367187c-11.496093 19.566406 1.789063 44.773438 24.46875 45.597656.523438.019532 1.054688.03125 1.585938.03125 17.003906 0 31.695312-9.90625 38.613281-24.265624v.003906c6.917969 14.355468 21.609375 24.261718 38.609375 24.261718 17.003906 0 31.695313-9.90625 38.613281-24.265624v.003906c6.921875 14.355468 21.609375 24.261718 38.613282 24.261718.53125 0 1.0625-.011718 1.589843-.03125 22.679688-.828124 35.964844-26.035156 24.464844-45.597656zm0 0" fill="#35a155"/><path d="m242.246094 41.367188-16.257813-2.363282c-4.980469-.726562-9.289062-3.855468-11.515625-8.367187l-7.269531-14.730469c-5.609375-11.367188-21.820313-11.367188-27.429687 0l-7.269532 14.730469c-2.226562 4.511719-6.535156 7.640625-11.515625 8.367187l-16.253906 2.363282c-12.546875 1.820312-17.554687 17.238281-8.476563 26.085937l11.761719 11.464844c3.605469 3.515625 5.25 8.578125 4.398438 13.539062l-2.777344 16.191407c-2.140625 12.492187 10.972656 22.019531 22.191406 16.121093l14.542969-7.644531c4.453125-2.339844 9.777344-2.339844 14.234375 0l14.539063 7.644531c11.21875 5.898438 24.335937-3.628906 22.191406-16.121093l-2.777344-16.191407c-.851562-4.960937.792969-10.023437 4.398438-13.539062l11.761718-11.464844c9.074219-8.847656 4.066406-24.265625-8.476562-26.085937zm0 0" fill="#fee970"/><path d="m132.074219 275.554688c4.144531 0 7.503906-3.359376 7.503906-7.503907v-11.113281c0-4.144531-3.359375-7.503906-7.503906-7.503906s-7.503907 3.359375-7.503907 7.503906v11.113281c0 4.144531 3.359376 7.503907 7.503907 7.503907zm0 0"/><path d="m254.894531 275.554688c4.144531 0 7.503907-3.359376 7.503907-7.503907v-11.113281c0-4.144531-3.359376-7.503906-7.503907-7.503906s-7.503906 3.359375-7.503906 7.503906v11.113281c0 4.144531 3.359375 7.503907 7.503906 7.503907zm0 0"/><path d="m193.484375 281.484375c8.074219 0 15.65625-3.378906 20.804687-9.269531 2.730469-3.121094 2.410157-7.859375-.710937-10.589844-3.117187-2.722656-7.859375-2.410156-10.585937.714844-2.300782 2.628906-5.765626 4.136718-9.507813 4.136718s-7.207031-1.507812-9.507813-4.136718c-2.726562-3.121094-7.464843-3.441406-10.585937-.714844-3.121094 2.730469-3.441406 7.46875-.710937 10.589844 5.148437 5.890625 12.730468 9.269531 20.804687 9.269531zm0 0"/><path d="m154.871094 512h77.226562c4.144532 0 7.503906-3.359375 7.503906-7.503906v-62.136719c8.742188 6.859375 19.671876 10.835937 31.105469 10.835937 15.007813 0 29.160157-6.828124 38.613281-18.070312 9.453126 11.242188 23.605469 18.070312 38.613282 18.070312 28.542968 0 47.394531-31.113281 34.292968-56.484374l-10.453124-20.234376c-1.902344-3.679687-6.429688-5.125-10.109376-3.222656-3.683593 1.902344-5.125 6.429688-3.222656 10.109375 0 0 10.433594 20.203125 10.449219 20.234375 7.644531 14.792969-2.335937 33.300782-18.882813 34.578125-13.445312 1.039063-28-7.851562-33.855468-19.859375-.945313-2.078125-2.820313-3.671875-5.160156-4.207031-3.410157-.777344-6.910157.90625-8.429688 4.058594-12.582031 26.09375-50.945312 26.160156-63.636719.152343-.949219-2.089843-2.917969-3.699218-5.160156-4.207031-3.410156-.78125-6.90625.902344-8.429687 4.054688-12.605469 26.140625-51.109376 26.136719-63.707032 0-1.488281-3.09375-5.082031-4.820313-8.429687-4.054688-2.191407.5-4.210938 2.074219-5.128907 4.144531-12.320312 26.382813-51.226562 25.71875-63.664062-.089843-1.519531-3.152344-5.019531-4.835938-8.429688-4.054688-2.316406.527344-4.171874 2.097657-5.128906 4.140625-6.070312 12.507813-19.191406 20.425782-33.125 19.910156-17.011718-.636718-27.34375-19.664062-19.648437-34.566406l36.261719-70.1875c6.652343 5.222656 14.886718 7.828125 23.308593 7.828125 15.007813 0 29.160157-6.824219 38.613281-18.066406 9.453126 11.238281 23.605469 18.066406 38.613282 18.066406 15.007812 0 29.160156-6.824219 38.613281-18.066406 9.453125 11.242187 23.605469 18.066406 38.613281 18.066406 14.070313 0 27.386719-6 36.785156-16.011719.625-.664062 1.234376-1.351562 1.828126-2.054687 9.453124 11.242187 23.601562 18.066406 38.613281 18.066406 8.351562 0 16.714843-2.648437 23.308593-7.828125l12.160157 23.535156c1.898437 3.679688 6.425781 5.125 10.109375 3.222657 3.679687-1.902344 5.125-6.429688 3.222656-10.113281l-15.140625-29.304688c5.917969-11.601562 5.597656-25.113281-.953125-36.40625l-40.515625-69.855469c.800781-1.144531 1.558594-2.328125 2.242187-3.574219 6.511719-11.878906 6.316407-25.917968-.523437-37.554687l-54.832031-93.292969s7.542968-7.355468 7.550781-7.363281c13.304687-12.964844 5.671875-36.226563-12.632813-38.886719l-16.257812-2.359375c-2.535156-.371093-4.730469-1.964843-5.863281-4.261719 0 0-7.265625-14.722656-7.269531-14.730468-8.210938-16.636719-32.695313-16.601563-40.890626 0l-7.269531 14.730468c-1.132812 2.296876-3.328125 3.890626-5.863281 4.261719 0 0-16.242188 2.359375-16.257812 2.363281-18.332032 2.664063-25.914063 25.9375-12.632813 38.886719l7.550781 7.359375-22.640625 38.527344c-2.101562 3.570312-.90625 8.167969 2.664063 10.269531 3.574218 2.101563 8.171875.90625 10.273437-2.667969l14.304688-24.339843s-.925781 5.402343-.925781 5.402343c-1.171876 6.824219.953124 14.113282 5.648437 19.246094 6.886719 7.527344 18.417969 9.527344 27.429687 4.785156 0 0 14.539063-7.644531 14.550782-7.648437 2.15625-1.128906 4.835937-1.152344 7.023437-.089844.070313.03125.144531.058594.214844.09375 0 0 14.539063 7.644531 14.539063 7.644531 8.648437 4.546876 19.433593 2.996094 26.457031-3.78125 5.371093-5.1875 7.882812-12.898437 6.621093-20.25l-.925781-5.402343s46.476563 79.078125 46.492188 79.109375c8.824219 15.007812-2.253907 34.324218-19.585938 34.324218-13.433593 0-25.886719-7.792968-31.78125-19.867187-2.683593-5.503906-10.816406-5.902344-13.589843-.152344-5.859376 12.160157-18.363282 20.019531-31.851563 20.019531-13.125 0-26.277344-7.796874-31.78125-19.867187-.019531-.042969-.046875-.082031-.066406-.121094-2.59375-5.449219-10.894531-5.484375-13.527344-.03125-5.859375 12.160157-18.363281 20.019531-31.851563 20.019531-17.339843 0-28.390624-19.335937-19.585937-34.324218l17.078125-29.058594c2.101562-3.574219.90625-8.171875-2.667969-10.273438-3.570312-2.097656-8.171875-.902343-10.269531 2.667969l-17.078125 29.0625c-6.839844 11.636719-7.035156 25.675781-.519531 37.554688.683594 1.246093 1.4375 2.429687 2.238281 3.574219l-40.519531 69.855468c-6.550782 11.292969-6.867188 24.800782-.953125 36.402344 0 0-39.210938 75.90625-39.238281 75.960938-13.101563 25.363281 5.78125 56.484374 34.289062 56.484374 15.007812 0 29.160156-6.828124 38.613281-18.066406 9.457031 11.238282 23.605469 18.066406 38.613281 18.066406 11.4375 0 22.367188-3.972656 31.109376-10.832031v62.132813c0 4.144531 3.359374 7.503906 7.503906 7.503906zm7.503906-69.625c.082031.0625.167969.125.25.1875 18.125 14.027344 43.9375 13.957031 61.96875-.1875v54.617188h-62.21875zm83.105469-380.417969-11.761719 11.464844c-5.242188 5.109375-7.820312 12.824219-6.558594 20.179687 0 0 2.773438 16.160157 2.777344 16.191407 1.058594 6.183593-5.78125 11.121093-11.304688 8.210937-5.234374-2.75-10.390624-5.824218-15.785156-8.25-5.953125-2.683594-12.773437-2.683594-18.726562 0-5.382813 2.429688-10.554688 5.5-15.785156 8.25-5.609376 2.953125-12.371094-1.992187-11.300782-8.210937l2.773438-16.191407c1.269531-7.398437-1.179688-14.941406-6.5625-20.1875 0 0-11.714844-11.414062-11.757813-11.457031-4.546875-4.433593-1.925781-12.382812 4.320313-13.289062l16.253906-2.363281c7.429688-1.078126 13.84375-5.742188 17.167969-12.472657 0 0 7.246093-14.683593 7.269531-14.726562 2.8125-5.699219 11.171875-5.679688 13.972656 0l7.269532 14.730469c3.320312 6.730468 9.738281 11.390624 17.164062 12.46875 0 0 16.203125 2.355468 16.257812 2.363281 6.269532.914062 8.855469 8.863281 4.316407 13.289062zm-187.5625 229.917969 38.777343-66.859375c5.898438 3.550781 12.699219 5.277344 19.5625 5.277344 15.007813 0 29.160157-6.824219 38.613282-18.066407 9.453125 11.242188 23.605468 18.066407 38.613281 18.066407s29.15625-6.824219 38.613281-18.066407c9.453125 11.238282 23.605469 18.066407 38.609375 18.066407 6.855469 0 13.679688-1.734375 19.566407-5.277344 0 0 38.761718 66.828125 38.777343 66.859375 8.730469 15.050781-2.367187 34.355469-19.726562 34.355469-13.492188 0-25.992188-7.855469-31.855469-20.015625-1.242188-2.582032-4.019531-4.292969-6.90625-4.238282-3.21875.066407-5.566406 2.167969-6.96875 4.921876-5.972656 11.707031-18.347656 19.332031-31.496094 19.332031-13.488281 0-25.992187-7.855469-31.851562-20.015625-2.679688-5.554688-10.847656-5.546875-13.519532 0-5.863281 12.160156-18.363281 20.015625-31.855468 20.015625-12.460938 0-24.371094-6.910157-30.617188-17.679688-1.636718-2.828125-2.796875-5.589843-6.324218-6.394531-3.410157-.777344-6.910157.90625-8.429688 4.058594-5.859375 12.160156-18.363281 20.015625-31.851562 20.015625-17.363282 0-28.460938-19.304688-19.730469-34.355469zm0 0"/></svg>