<svg width="229" height="457" fill="none" xmlns="http://www.w3.org/2000/svg"><path fill-rule="evenodd" clip-rule="evenodd" d="M155.7 161.6l.2 2.3.1-.3c0 4.8.7 9.6 1.5 14.3 2-1.7 3.7-3.2 3.2-6-1.2-4-2.8-8-4-12l-.2 1-.9.2v.5zM11.2 410.7l1.1-5c0-.2.4-.2.5-.2 2-5 3.8-6 7.7-6.7a53.5 53.5 0 0018.5-7.3l-1-2.5h.2a.8.8 0 00.3 0l1 2.2 2.3-1.6 2.1-1.3c.1-.7 1-.9 1.6-1.3 1-.7 1.5-1 2.4-.2 2-2.5 3.5-5.1 5-8.5 1-2 1.4-4.2 2.7-6l-.9-.3c14.7-32.3 17-68.3 20.1-102.8.7-7.7 1.4-15.5 2.7-23 .2-1.1.4-2.2 1-3.1-8.1-6.8-8.2-19.9-4.2-29.6-9.2-24.6 8.7-50.7 7.4-75.9-.7-17 2.4-36.8 21.6-40.8 2.4-1.4 5.3-1.6 7.6-1.7 2-1 2.3-3.3 3-5.2h.8l.6-2.6c.3-.5.1-1.3 1-1.1 1.9-2.8 17.4-4.2 17.6.3.5.3.6 1 .8 1.8.8 5.5 6.7 9.9 12 9h.2c22.7-1 31.6 15.2 36 37.2a151 151 0 013 52.7c-2.7 7.7-10.7 11.5-17 16.2.8 1.8.9 3.8.9 5.8 0 2.2.2 4.5.4 6.7.4 2.8 1.1 7.7-2.7 8-1.5 33.7-4.6 67.2.1 101 4 18.6 2.5 41.2-2.4 59.5-.3.9-1 1.7-2 1.4-.4.3-.8.5-1.2.2l-.7 1.2c-.1 5-.7 10-.4 15 .4 0 1.2-.4 1.5-.2v.4l.4.1c.7 1.9 1 3.8 1.4 5.4 1.3 2.7 3 7.5 2 10.5l.4.4c.2 0 .3.3.3.5.7.2.7 1 .8 1.7.3 1.8-.1 3.5-.3 5.3s-.6.6-.6.6c-6.8.4-13.5.5-20.3.8-.5-1-.7-2.4-1-3.4-8.1 5.9-22 3.6-32.2 2.2-4-.6-8-1.2-11.4-1.4-.2 0-.3-.1-.3-.2 0-1.3-.2-2.7-.1-4-.7-.7-.4-2 0-3 1.9-4 6.8-4.4 10.7-5a38.5 38.5 0 0018.3-8.4l-1-.8.4-.2.7-.4h.4l1.4-1 .2.4 1.4-1.5s0-.4.2-.5l4 1a51 51 0 002.2-15c-1.5 0-2.7 0-3.8-.7-.3.1-.7.3-.8-.2-.4-1.9-.5-3.9-.7-5.8-2.2-36.7-5.6-66.1-17-97.1-1 4.3-2.9 8.7-4.5 13-7.6 18-13 37.3-17.7 56.1-1.9 7-3.8 14.8-5.8 21.8-.8 3.3-2.3 4.6-5.6 4.5-2.5.2-5 .1-7.6 0a21.9 21.9 0 00-5.8 11.1c.8.6 2.2.4 3.1.6.9 1.4.6 3.3.6 5-.2 2.1 0 4.4-.7 6.5l-.3 7.3c1.9 1.1 1.5 3.5 1 5.8-.4.5-10.4.4-12.9.4-2.9-.2-7 .6-8-2.6-7 3.8-17.5 2.5-25.6 1.4a188 188 0 01-17-2.6s-.2-.2-.1-.3z" fill="#fff"/><path fill-rule="evenodd" clip-rule="evenodd" d="M74.2 389.7c-1.5.9-2.8 2.3-4.4 3a18.8 18.8 0 01-21.6-4c-.8 0-1.4-.9-1.2-1.6-1.6.1-3 1.4-4.1 2.4.1 1.1 0 2.2-.4 3.3a43.5 43.5 0 00-.7-2.5l-1 .9c0 .6-.8 1.1-1.4.9a48.3 48.3 0 01-15.8 7c-4.4.8-6.7.7-8.6 5.4.7.1 1.4.5 2.5.7 18.4 2.2 37-.1 55.4 1.4l.7-12.1c.1-1.5.2-3 .7-4.3v-.5zm-.7-10c0-.2.2-.4.4-.6l.8-1.1a80.6 80.6 0 01-18.5-4.6 34 34 0 01-6.2 14.1c5 5.2 13 6.4 19.4 3.6-.4-1 .5-2.3.7-3.3.8-2.3 2-4.6 3-6.9 0-.3.2-.7.4-1.1zm1.4 0h-.2v.3l.1-.3zm59 21.2c0 .3-.2.5-.3.7.2.2 2.2 4.5 1.1 3.8-.6-1-1.2-1.8-2-2.7l-.5.8c.7.5.4 1.6-.5 1.6l-.9-.1a34 34 0 01-15 7.7c-4.5 1.4-13 .6-13.2 7 .5 0 1 .2 1.3.5 20 6.8 40.5-.3 60.6-2.3-.3-.5 0-1.6.8-1.5 0-4.5-1.2-9-3-13-10.3 9.7-17.6.1-27.9-2.2a.8.8 0 01-.4-.3zm-5.2-1.7h.1a7.3 7.3 0 002.4 3.6l1-.9-2.6-2.3c-.3-.2-.6-.4-1-.4zm39.7-180c.3-1 0-2 0-3-.3-2.6-.6-5.4-.5-8l-.1-3c0-.2.3.4.3.5v-.2a3 3 0 00-.3-.4c-5.3 4.4-10.5 9-15.5 13.8-.5.5-1.3.5-1.8 0a47 47 0 00-3.3-2.7 14 14 0 01-1.8 3.7c4.6.6 9.1-.7 13.6-1 3-.2 6.1-.1 9.1.3h.3zm-10-43.2c1.6-1.3 2.2-2.2 2-4.4-.9-3.2-2.1-6.3-3.2-9.5l-.2 2c.4 4 .7 8 1.4 12zm-1.6-15v-.4.4zm28.7 24.4c0-1.7.2-3.4.3-5 .8-14.3-.2-28.7-3-42.7-3.7-19.8-10.5-39.6-34-40-.9.7-1.2 1.9-1.7 2.9a23.2 23.2 0 01-5.7 7c-9.7 8-35.4 17-37.6-2.2v-1.8c-.1-.7 0-1.5.1-2.2 0-.5 0-1.2.3-1.7a.8.8 0 010-.1c1-2 2.8-2.7 4.8-3.5.3-.3 0-.8-.4-.7-1 .3-1.9.6-2.9.7l-.2.2c-22.9 7-22.2 25.7-21.8 45.6-.4 21.4-12.8 41.5-9.2 63.2 4.3-26.1 12.7-51.5 14.7-78 .1-2.4.5-4.8.7-7.1.2-1 .3-3.8.7-3.4a85 85 0 01-1 27.6c-3 18.5-8 36.5-11.4 54.9-2 8.2-2.1 16.8 6.1 21.5 8.9 4.9 20 3.9 29.5 2 .8-.3 1.4.1 1.6.7 1.9-4 6.1-5.9 8.8-9 2.8-3.6 4.6-7.7 7-11.4-.2-2.2 1.9-5.7 4.3-5.8 6-6.2 12.4-12 19.4-17 .1-.4.4-.6.6-.8.3-.5.4-1.1.4-1.7-1-6.1-1.3-12.5.3-18.5-3-9.2-4.7-18.7-6.4-28.1-.2-.5.6-.7.7-.2l.6 3a473 473 0 0012 37.2c.4 1.7 1 3.4.6 5.2-.2 1-1.8.9-2-.2a1 1 0 00-1 .2c-2 3-4.9 5.5-7.7 8-5 4-9.7 8.3-14.3 12.9-1 1.4-4.7 3.9-5 5.7.6 3.4 4 5 6.7 6.3 4 1.9 7.7 4.3 11 7.2 7.2-6.6 14.6-12.9 22.5-18.6 4.5-3.3 10.1-6.5 11.6-12.3zM105.2 100v.3l.2-.4a8.7 8.7 0 01-.2 0zM79.4 241l.2-.6-.6-3c-2-2-3.3-4.9-3.6-7.7-.1-.9-.2-1.7.4-2.3.3-.3.8-.3 1 0 .7.9.5 2.2.8 3.3.6 2.4 1.9 4.6 3.8 6.1 1 .9 2.4 2 3.6 2.3-1-3.7-3-7.2-3.3-11.1 0-1.2 0-2.2.3-3.3.2-.7.5-1.3.2-2a17 17 0 01-6.6-7.8 1 1 0 01-1.2-.6c-1 7.6-2.4 15.6 1.6 22.6.9 1.5 2 3 3.4 4.1zm40.8-17.5l3.2-3.6c1-1.2 3 .6 1 2.2-3.3 4.2-3.2 9.5-1.6 14.3a29.5 29.5 0 015.4-12.1c.5-.6 1.7-.3 1.4.6-1 2.7-1.4 5.8-1 8.7.2 1.4.8 2.7.9 4 0 .5-.3 1.7.5 1.5.3-.1.5-.8.6-1.2.7-2 .5-4.1.8-6.2.3-2.7.7-5.5 2.7-7.5.4-.5 1-.2 1.2.3 1.5 3.7 0 8.3 2.7 11.5.1.2.9 1 1 .8.2-.1 0-1 0-1.3-1.9-7.8 4.5-14.2 6.8-20.2-4.6-3.7-12.3-4.9-14.3-11-1.9 4-3.4 8.3-6.4 11.8-2.8 3.4-8.2 5.6-8.4 10.6 1.4-.8 2.4-2.1 3.5-3.2zm41.1 161.8c-3.5 0-7 1.1-10.5 1a77 77 0 01-9.6-.2c1.2 4.8.8 10.4-.8 15 6.2 3 11.9 7 18.7 3 0-.6.3-1.2.5-1.7-.1-.4-.2-.8.1-1a87 87 0 011.6-16.1zm-122.6 0c-.4.5 1 3.9 1.4 4.5l1.3-.9c-.3-1-.8-1.9-1.4-2.7-.2-.2-.9-1.2-1.3-.8zM12.1 405c0-.3.3-.6.6-.6.9-2.3 2.3-4.6 4.5-5.8 1.3-.7 2.8-.9 4.2-1.2 6-1.1 11.8-3.5 17.1-6.7-.5-1.5-1-3-1.3-4.4-.5-1.7.8-3.1 2.5-2.4 1.5.6 2.4 2.7 2.9 4.1l1.1-.7c.2-.6 1-.8 1.5-1.2.8-.5 2-1.5 3-.8 1.8-2.4 3.2-5 4.5-7.8 1-2 1.3-4.2 2.7-6-.2-1.2.5-2.4 1-3.4a69.2 69.2 0 001.3-3c8.6-23.2 11.6-48.1 15.2-72.5 2.6-16.4 2.2-33.2 5.8-49.4C70 236 70.1 222.8 74 213c-8.2-23 5.7-45.8 7.4-68.6.6-16.7-2.2-36.7 15.2-46.1 2.1-1.3 4.5-2.2 7-2.7 2.3-1.3 5-1.6 7.6-1.7 1.4-.8 1.9-2.6 2.4-4l.5-1.7c2.1 5.3-3 10.9-8.2 11.6-2.3 8.2 2.6 15.6 11.5 15.1 10.3-.8 24.8-6.4 28.5-16.9-1.6 0-3.2-.5-4.7-1-.4-.1-.9-.1-1-.5a12.5 12.5 0 01-7-9h.2a1.6 1.6 0 01-.2-.1v-1.8c.3-.3.7-.4 1.1-.3 1.4.3 1.4 1.7 1.6 2.8a10.4 10.4 0 0011 8c.2-.1.5-.2.8-.1h-.1c23.8-.9 32.4 17.4 36.5 37.8 3.3 15 4.6 30.4 3.9 45.7-.2 1.8 0 6.6-1.2 7.7-2.5 7.7-10.5 11.3-16.5 16 .6 1.8.7 3.7.7 5.6 0 2.2.2 4.4.4 6.5.2 2 .7 4.2 0 6.1-.4 1.2-1.5 2.5-2.8 2.6-.4 3.3-.5 6.6-.8 10-.3 30-3.8 60.3 1 90.2 1.8 11.4 3.2 23 2 34.4-.9 8.6-2.6 17-4.4 25.4-.4 1.1-1.3 2.2-2.5 2-.4.3-1 .5-1.4.2 0 5.4-.8 10.7-.4 16.1l.8-.4c.1-.4.4-.7.8-.5l.2.1c.6 1.8 1 3.8 1.4 5.6a23 23 0 012.4 8c.1 1.1.3 2.6-.7 3.3.4 0 .8 0 .9.5.4 1.1 1.2 8.2-.5 8.2-6.8.4-13.6.5-20.4.7a.9.9 0 01-.8-.6l-.7-2.4c-10.7 6-36.4 2.5-43 1.2-1.2 0-1.3-4.2-1.2-5.4-.8-1-.3-2.6.1-3.6 2-4.2 7.1-4.7 11.2-5.4a38.4 38.4 0 0017.3-7.6c-1.3-1.3-2.9-3.4-2.7-5.3.1-.8.9-1.3 1.7-1.2 1.9.1 3.2 2.1 4.3 3.4l.6-.7c0-.5.4-1 1-.9 1.1.2 2.2.4 3.3.8.3-1.2.8-2.5 1-3.7a40 40 0 001-9.7 6 6 0 01-3-.6c-.7.1-1.3 0-1.5-.8-.5-2.5-.6-5-.8-7.6-1.9-32-5.4-64.2-16.5-94.4-1.1 3.6-2.7 7.1-4 10.7-9 23.8-14.8 48.6-21.3 73l-1.8 6.2c-.8 3.5-2.5 5.1-6.2 5.1a65 65 0 01-7.3 0 20.7 20.7 0 00-5.3 10c.7.4 3-.2 3 .8 1 1.5.5 3.5.6 5.1-.2 2.3 0 4.6-.7 6.8l-.3 6.8c2 1.4 1.4 4.2.9 6.3 0 1.4-11.8.8-13.5.9-2.8-.2-6.9.6-8.3-2.4-9.3 4.5-22 1.3-32 .4l-10.5-1.8c-.5-.1-.7-.7-.6-1.2l1.2-5z" fill="#2B283A"/><path fill-rule="evenodd" clip-rule="evenodd" d="M134.4 33.2l-1.2 1.5L135 36a16.4 16.4 0 00-9-2.9c-6.4 0-19.2 5.4-22 9.3-1.5 2-4.2 8-5.6 14.4a77.8 77.8 0 00-1 25.3c2 7 9 13.6 16.2 13.6 7.2 0 18.3-5.2 26.3-16.5.3-.5 4.5-1.1 7.5-3l-.8 8.5-.6 5 .1.4c2.2 5.7 3.8 8.7 5 9 1.4.2 4-1.9 7.9-6.3l.5-2 1.9-8.7-.4-7.4V54.2c-4.2-14-8.2-21-12-21h-14.7z" fill="#fff"/><path fill-rule="evenodd" clip-rule="evenodd" d="M144.3 28.5a4.4 4.4 0 00-3.8.3 6.7 6.7 0 00-5.8 3.2v.1l-.3.3a8 8 0 00-.7 1c1 0 1.8.3 2.4 1.2.4.5-.6 1-1 .5-.3-.5-.9-.7-1.4-.7l-.4-.1-.1.4c-3-1.2-6-1.5-9.2-1.2l.3.7c.1.3 0 .6-.4.7-.2 0-.5-.1-.6-.4a2 2 0 00-.6-.9 47.8 47.8 0 00-9.4 2.7c.2.2.5.3.6.7.4.6-.5 1.1-.9.5l-.1-.1H112.3a.5.5 0 01-.5-.4c-.8.4-1.7.7-2.5 1.2h-.1a14 14 0 00-6.2 5.5.9.9 0 000 .5l-.9 1a39 39 0 00-4.5 11.4 143.1 143.1 0 00-2.4 16.6c-.2 5.3.9 10.6 3.8 15 2.7 4 6.6 7 11.3 8 4.8 1 9.9 0 13.7-3.1.6-.5.5-1.6 0-2-.6-.7-1.5-.6-2.1 0-3.6 3-8.7 3.4-13 1.9a17 17 0 01-9-8.4 27.1 27.1 0 01-2.3-14.5 99 99 0 011-8.1l.2-1.6 1-5.3v-.4a35.4 35.4 0 013.7-9.8h.5a20.3 20.3 0 016.9-.9c1.2 0 2.5 0 3.7.4l.3-.2a.8.8 0 00.1 0c.3-.1.5-.3.6-.6l.5-.4c.4.1.7-.2.8-.5l.3-.2h.2l.7-.1c.4-.2.6-.5.7-.8.5 0 1 0 1.3-.4l1-.8a30 30 0 0110-2.5 13.8 13.8 0 011.3.4H130c-3.7.5-6.6 3.3-9.1 6-.6-.1-1.2.6-.7 1.1l4.3 4c0 .5.4.9.9.8l2.2-.5c.8.3 1.8.3 2.5-.3h.4c.2.2.5.2.8.2.3 0 .6-.2.8-.4l.7-.7.4.5c.3.2.6.3 1 .3.5-.1 1-.6 1.3-1.1l.3.3c.2.2.5.3.9.3.2 0 .5-.3.7-.5l.4-.7.6-.1 2.2-.6.2.5-1.1.8-2 1.5-2.6 1.9-.3-.1c-.4-.1-.7.1-.8.5a2.5 2.5 0 01-.2.4c-.7 0-1.2.4-1.4 1a3.7 3.7 0 00-.5 0c-.4 0-.8.4-.7.8v.1c-.2.1-.4.3-.4.6l-.2.4c-.2.7.2 1.5.4 2.1l.4 1.3.3 1c1 3 1.8 6 1 9-.1.6.7 1 1 .4a40 40 0 012.8-3.4c.8-.2 1-.7 1.3-1.2h.6c.3 0 .6-.1.7-.3l.6-.7c.2-.2.7 0 1 0 .2 0 .5-.1.7-.3.4.6.6 1.2.7 2l.2.6a5.6 5.6 0 00-1.2 0 4.3 4.3 0 00-3.2 2.7c1-1.4 3-1.4 4.4-1 1.5.6 2.3 2 2.7 3.5.3 1.6-.1 3.4-1 4.9-.5.6-1 1.2-1.8 1.5-1 .3-1.8-.3-2.7 0-.7.2-1 .8-.8 1.4l.2.7-1 2a49.3 49.3 0 01-4.7 5l-2.8 2c-.6.4-1 1-.6 1.9.2.6 1.1 1.1 1.8.8a12 12 0 003.6-2.4c1-.9 1.8-2 2.5-3.1.6-1.1 1-2.4 1.4-3.6V82l.6-1.9c.7.4 1.7.5 2.5.4 1.2-.2 2.4-.8 3.3-1.8l1-1.4v1c-.7.7-1 1.8-.8 2.9-.6.6-.8 1.6-.4 2.4-.7.6-.7 1.7-.4 2.6-.8.9-.9 2.3-.2 3.2v.1c-.6 1-.5 2.4.3 3.3-.6 1-.5 2.4.9 2.8.4.2.9 0 1.3-.2a8.7 8.7 0 000 4.8c0 .6.7 1 1.4 1 .5 0 .9-.2 1.2-.6 0 .8 0 1.6.2 2.4 0 .5.5.9 1 1-.2.2-.2.5 0 .8.6 1.2 2.4.7 2.5-.5.5-.4.7-1 .8-1.6l.3-2.8.1.1c.1.5.4.9.7 1 0 .8 0 1.6.6 2.3.3.4.9.5 1.4.4a1.7 1.7 0 001.5-2.1c.5-.6.6-1.3.5-2 .9-.5.9-1.8.6-2.8.9-.7 1.2-2 .8-3.1.8-1 .9-2.5.3-3.6a2 2 0 000-3c.5-.9.8-2 .3-2.9.4-.3.5-.9.5-1.4 0-.7-.5-1.2-1.2-1.6V81c-.1 0-.3 0-.4-.2a2.3 2.3 0 00-.5-.3c-.1 0-.3 0-.4-.2l-.8-.1c-.7 0-.7-1-.1-1.1l.4-.2h.1l.8.1a1 1 0 01.4.4c0 .2.1.4.4.5.2.2.6.2 1 0 .3-.2.3-.6.3-1-.1-.9.4-1.7.3-2.6a2 2 0 00-.4-1c.4-.7.5-1.6.1-2.4.8-.8 1-2 .4-3l-.2-.5a2.3 2.3 0 000-2.3c.6-.7.7-2 0-2.7v-.2c.3-.7.3-1.5 0-2l.2-1c.2-.8 0-1.5-.1-2.3a7.6 7.6 0 00-.2-.4v-1.6l.1-1.4v-.3c0-.8 0-1.9-.4-2.5a2 2 0 00-.3-2.2 2 2 0 000-2 2.2 2.2 0 00-.2-.3c0-.7 0-1.3-.4-2-.2-.4-.6-.7-1-1V45c0-.4 0-.8-.2-1.1.3-.4.4-1 .3-1.4-.2-.6-.6-1.1-1.2-1.4a11.3 11.3 0 00-.2-1.6c.3-.7 0-1.7-.7-2.1.1-.6 0-1.2-.4-1.6a1.6 1.6 0 00-.5-.4 2 2 0 00-.5-1.7 2 2 0 00-1.3-.6c-.2-1-1.1-1.8-2.2-1.8 0-.4-.4-.8-.9-1a1.6 1.6 0 00-.3 0 6 6 0 00-3.2-1.8c-1-.3-2.1-.3-3 0h-.1a11.6 11.6 0 00-1 0zm8.2 68.5c.3 0 .6.2.7.4 0 .3-.1.6-.4.7l-1.1.2a.6.6 0 01-.6-.6c0-.3.3-.6.6-.6h.8zm2.5-5.9c.5 0 .8.2 1.2.5.2.2.2.5 0 .7-.3.2-.6.3-.8 0h-.4c-.2 0-.5-.3-.5-.6s.2-.6.5-.6zm-8-3.5c-.6-.3-.1-1.3.5-1 .3.3.7.2 1 .2a.6.6 0 010 1.1c-.6 0-1.1 0-1.5-.3zm4.7-4c.5-.1 1-.2 1.4-.1h.3l.3.1c.2 0 .3.2.5.3.5.4-.3 1.2-.8.8a.4.4 0 00-.1-.1H152c-.7.2-1-.9-.3-1zm.5-10.7c.9-.4 1.8-.4 2.6.2.6.4 0 1.3-.5 1a1.9 1.9 0 00-.2-.2 2 2 0 01-1.3 0c-.7.3-1.2-.7-.6-1zm-9.5-1.7c.9-.1.9-1.5 0-1.4-1.9.2-3.6 1-4.8 2.5-.6.6.4 1.6 1 1a6 6 0 013.8-2.1zm9.9-7.2h.6c.4 0 1 .3.8.9-.2.4-.7.5-1 .2a4.2 4.2 0 00-.3 0l-.9.2c-.7.1-1-1-.3-1l.3-.1.4-.1a.5.5 0 01.2 0h.2zm5.5-8.6c1-.1 2.5 0 2.6 1.2.1.7-.9.7-1 .1a7.3 7.3 0 00-2.1 0c-.3-.3-.3-.8.1-1 .1-.1.2-.3.4-.3zm-21.5-2c.2-.2.6-.2.8 0l.3.4v.1h.1v.2c.3.2.3.6 0 .8-.1.2-.5.2-.7 0a1.8 1.8 0 01-.3-.4v-.1l-.1-.2a.5.5 0 010-.8zM148 52c.8-.6 1.8-.6 2.5 0 .5.5-.3 1.3-.8.8l-.4.1h-.2s-.1 0 0 0h-.1c-.3.3-.6.3-.8 0-.4 0-.6-.6-.2-1zm-7.6-1.9c-.7-.2-.4-1.2.3-1 .7.2 1 .8 1.2 1.5 0 .3-.1.6-.4.7-.3.1-.6 0-.7-.4 0-.2 0-.3-.2-.5v-.1l-.1-.1h-.1zm11.6-5.6h.1c.7-.1 1.6-.2 2 .5.4.6-.6 1.1-1 .5h-.2l-.6.1c-.7.2-1-.9-.3-1zm-24-4.2c-.5-.5.3-1.3.8-.8l1 1.3c.1.3 0 .6-.2.8-.2.1-.6 0-.8-.2-.2-.5-.5-.8-.8-1.1zm6.4-1.4c.5.3.8.8 1 1.4 0 .3-.1.6-.4.7-.3 0-.6-.1-.7-.4l-.2-.5-.4-.2c-.2-.1-.4-.4-.4-.6.5.1.8 0 1-.4zm15-2.4c.5-.4 1.2-.5 1.8-.2.2.1.3.5.2.7-.2.3-.5.4-.8.2h-.2a1 1 0 00-.1 0l-.1.1c-.6.5-1.4-.3-.8-.8z" fill="#2B283A"/><path fill-rule="evenodd" clip-rule="evenodd" d="M120.7 76.7c-2.4-.3-4.7.5-7 .8a33 33 0 01-4.5.4c0-.2-.1-.4-.4-.5-.5-.3-1-.4-1.6-.3l-1.6.1c-1 .2-2 .6-2.7 1.3-1.7 1.7-1.5 4.3-.2 6.1 2.7 3.7 7.6 3.9 11.7 3.9h.4c3.8-.1 9.2.5 11-3.9a6 6 0 00-.3-4.9c-.9-1.8-2.8-2.7-4.8-3zM108.9 83l5.2.1a67.7 67.7 0 01-.3 2.4v.6a.5.5 0 00-.3.2v.1c-1.4 0-2.9 0-4.2-.2 0-.3-.1-.4-.2-.5l-.2-1.7v-1zm6.6.2h4.3l-.3 2c-.2.6.4 1 1 1h-.2c-1.6.3-3.3.2-5 .2l.1-1.5V83zm8.5-.2l-.2 1a4 4 0 01-3.1 2.2c.2-.1.4-.3.5-.6l.1-2.4c1 0 1.8 0 2.7-.2zm-19.9-.2h2l1.8.1v1.3c0 .5 0 1-.2 1.6a5.9 5.9 0 01-3-2.1 4 4 0 01-.6-1zm16.9-3.9a4 4 0 012.6 1.8c.3.6.5 1.3.5 2l-2.8-.2a40.9 40.9 0 000-.5v-.4c0-.8 0-1.8-.3-2.7zm-5.6.1h.5c1.3-.2 2.6-.3 4-.2h.5l-.3 2.7-.1 1h-.3l-4.2-.2V81l-.1-2.2zm-6.6 0a26.5 26.5 0 005.8.1l-.1.9-.2 1.7v.5L109 82h-.2v-1l-.3-2h.3zm-.6.2l-.2 2.7h-1l-.6-.1c-.8 0-1.7-.3-2.4 0-.1-.7 0-1.4.7-1.8 1-.8 2.4-.5 3.6-.8zM112 71c-1.7-1-6-2-6.3 1 0 1.5 1 2.6 2.2 3.2 1.2.5 3.2 1 4.2 0 .9-.9-.2-2.4-1.3-1.7-.5.3-1.6 0-2.2 0v-.1c-.7-.2-1.5-.8-1.3-1.6.3-.7 1.3-.8 1.9-.8l2.7.2c.2 0 .2-.2.1-.2zm-7-5c-2.4 0-3.8 2.5-3.3 4.5 0 .4.5.7.9.7h.2c.4-.1.7-.5.7-1 0-1 0-2.1 1.2-2.4 1-.2 1.5.8 1.5 1.7 0 .1.2.2.4.1.7-.4.8-1.3.5-2-.3-1-1.2-1.5-2.2-1.6zm17.1.6c-1.7-.6-3.5.3-4.3 1.8-.3 0-.6.3-.5.6 0 .5.1.8.4 1.2.6.6 1.6.3 1.8-.4.2-1 1.2-1.6 2.2-1.3 1 .4 1 1.6 1.8 2.2h.3c.8-.3.6-1.5.3-2.2a3.5 3.5 0 00-2-2zm2.3-5.1c-1.4-1.4-5-2.8-5.8-.2-.2.5.2 1.2.7 1.3.8.1 1.5-.2 2.4-.2.6 0 1.3.3 1.9.7 1.5 1.2 1.8 3.1 2.8 4.6h.2c.2-2.2-.7-4.7-2.2-6.2zM106.7 60c-1-.3-2-.3-2.8 0a5.5 5.5 0 00-3.2 2.6l-.4.8c-.7.5-1 1.4-.4 2l.1.2c.4.3.9.5 1.4.3 1-.3 1.1-1.1 1.5-2 .2-.6.6-1 1.1-1.4a5.5 5.5 0 014.6-.8s.1 0 0-.1c-.2-.4-.3-.7-.7-1l-1.2-.6z" fill="#2B283A"/><path fill-rule="evenodd" clip-rule="evenodd" d="M97.8 71.5c1.2 1.6 6.2 3.4 8.9 1.5 2.7-2 3.7-3.3 4-5.7.1-.2.6-.4.8-.2 1 1 1.8 2.3 2.5 3.6.8 1.4 1.5 3 3 4a14 14 0 008.5.9 8.8 8.8 0 005.2-7s.4-1.6.9-1.9c.4-.3 2.6-.5 2.8-.6 4.3-.8 9.8-1.3 13.6 1.5.6.3 2.4 1.5 2.4 1.2 0-1.1-1.3-3.7-4.2-5-3.7-1.4-9-1.5-12.2-1.2l-.7-.1c-4.8-2-10.2-1.5-15.3-.7-.7.2-7.2 1.8-9.8.8a28 28 0 00-13.5-2.5s-.6 3.5-.2 3.8c.4.2 1 .7 1.2 1 .2.2.3.5.3.9 0 2.4.6 4.3 1.8 5.7zm17.6-2.1c-.6-.8-.8-2.6-.5-3.8 0-.7.3-1.2.6-1.5l.6-.2.4.1c2-1 4.4-1.4 6.7-1.3 1.8 0 3 .4 4 1a4 4 0 011.5 3.2c0 1.5-.6 3.1-1.6 4.4a6 6 0 01-3.6 2.3 7 7 0 01-4.7-.7 8 8 0 01-3.4-3.5zm-15.9.8c-.9-1-1.5-2.5-1.6-3.9 0-1.2.3-2.5 1.2-3.5.9-.7 2.4-.8 4-.3a12 12 0 014.8 2.4c.2.1.3.2.5.6.2 1 0 2-.3 3-.4 1-1.1 1.9-2 2.6a4.3 4.3 0 01-3.3 1 5.3 5.3 0 01-3.3-1.9z" fill="#fff"/><path fill-rule="evenodd" clip-rule="evenodd" d="M108.3 62.2c-4.3-1.7-9-3-13.6-2.5a.8.8 0 00-1 .5c-1.8 5 2 3.7 2 5.6-.5 10.6 13.9 12.4 15.5 1.6 2.3 2.2 2.8 5.7 5.5 7.5a9 9 0 0014.4-6.3c.3-1.5.7-1.9 2.4-1.9h.3c4.3-.9 10-1.7 14 1.3.9.5 1 1.8 1.6 2.3.8.2 1.3-.8 1.4-1.5.1-6.6-11.8-7-17-6.5h-.5c-4.8-2-10.2-1.8-15.4-.9-3.2.6-6.3 2-9.6.8zM95.1 61c2.6-.1 5 0 7.5.6l3.7 1.3c8 3.5 9-2.8 27-.3-.3 1-.3 2-.3 2.9-3.7-.1-2.8 3.4-4.2 5.8v.1a7.6 7.6 0 01-10.6 2.9c-3.2-1.9-3.5-6.6-6.7-8.4-2.7-.2-1.6 3.6-3.1 5a6.2 6.2 0 01-9.3.6 6.7 6.7 0 01-1.9-4.6c0-1 .1-2.2-.7-3-.6-.6-1.6-.4-1.8-1.3 0-.5.2-1.1.4-1.6zm28.3 1.5a14 14 0 00-7.6 1.5c-1.6-1.3-2 4-1 5.4a8.3 8.3 0 008.8 4.6c5.5-.8 9.3-11.5-.2-11.5zm-7.4 1.9h.1c2.4-.4 8.9-2 11.4.6 2.4 4.4-3.8 11.8-10.2 5.9-1.7-1.8-2.4-4-1.3-6.5zm-7.6.6c-1.2-1.5-7.5-4.5-9.7-2.6-4 4.5 2.4 13.6 7.7 9.2 1.7-1.5 3-3.9 2.4-6.1v-.2c-.1-.2-.2-.3-.4-.3zm-9.6 2.7c-1.4-7.3 4.3-4.6 8.9-2.6-.3.2-.3.5-.2.8.5 5.4-6 8.5-8.7 1.8zm35-5c2 .7 14.7-.5 15.9 5.5-1.3-2-3.8-2.8-6.2-3.2-3.1-.6-6.3-.3-9.4.3v-.6c0-.7-.2-1.3-.3-2z" fill="#2B283A"/></svg>